<?xml version="1.0" encoding="UTF-8" standalone="no"?>
<!-- Created with Inkscape (http://www.inkscape.org/) -->

<svg
   width="255.99998"
   height="255.99998"
   viewBox="0 0 67.733328 67.733329"
   version="1.1"
   id="svg5"
   xml:space="preserve"
   inkscape:export-filename="comm_og.png"
   inkscape:export-xdpi="384.00003"
   inkscape:export-ydpi="384.00003"
   inkscape:version="1.3.2 (091e20e, 2023-11-25, custom)"
   sodipodi:docname="generic_comm.svg"
   xmlns:inkscape="http://www.inkscape.org/namespaces/inkscape"
   xmlns:sodipodi="http://sodipodi.sourceforge.net/DTD/sodipodi-0.dtd"
   xmlns="http://www.w3.org/2000/svg"
   xmlns:svg="http://www.w3.org/2000/svg"><sodipodi:namedview
     id="namedview7"
     pagecolor="#ffffff"
     bordercolor="#000000"
     borderopacity="0.25"
     inkscape:showpageshadow="2"
     inkscape:pageopacity="0.0"
     inkscape:pagecheckerboard="0"
     inkscape:deskcolor="#d1d1d1"
     inkscape:document-units="px"
     showgrid="false"
     inkscape:zoom="2"
     inkscape:cx="88"
     inkscape:cy="85.75"
     inkscape:window-width="1920"
     inkscape:window-height="1009"
     inkscape:window-x="1912"
     inkscape:window-y="-8"
     inkscape:window-maximized="1"
     inkscape:current-layer="layer1" /><defs
     id="defs2" /><g
     inkscape:label="Main"
     inkscape:groupmode="layer"
     id="layer1"
     style="display:inline"><rect
       style="opacity:1;fill:#3e3748;stroke:none;stroke-width:0.264583;paint-order:stroke markers fill"
       id="rect1"
       width="67.73333"
       height="67.73333"
       x="0"
       y="0" /><circle
       style="opacity:0.19325551;fill:#5d536c;stroke:none;stroke-width:0.423919;paint-order:stroke markers fill"
       id="circle3"
       cx="67.73333"
       cy="33.866665"
       r="33.866665" /><circle
       style="opacity:0.47341115;fill:#5d536c;stroke:none;stroke-width:0.337094;paint-order:stroke markers fill"
       id="circle2"
       cx="67.73333"
       cy="33.866665"
       r="26.930292" /><circle
       style="opacity:1;fill:#5d536c;stroke:none;stroke-width:0.264583;paint-order:stroke markers fill"
       id="path2"
       cx="67.73333"
       cy="33.866665"
       r="21.137403" /><circle
       style="opacity:1;fill:#6d617f;stroke:none;stroke-width:0.191722;paint-order:stroke markers fill;fill-opacity:1"
       id="circle4"
       cx="67.73333"
       cy="33.866665"
       r="15.31657" /><circle
       style="opacity:0.193255;fill:#905ed6;stroke:none;stroke-width:0.423919;paint-order:stroke markers fill;fill-opacity:1"
       id="circle5"
       cx="-1.2383505"
       cy="33.866665"
       r="33.866665" /><circle
       style="opacity:0.473411;fill:#905ed6;stroke:none;stroke-width:0.337094;paint-order:stroke markers fill;fill-opacity:1"
       id="circle6"
       cx="-1.2383505"
       cy="33.866665"
       r="26.930292" /><circle
       style="opacity:1;fill:#905ed6;stroke:none;stroke-width:0.264583;paint-order:stroke markers fill;fill-opacity:1"
       id="circle7"
       cx="-1.2383505"
       cy="33.866665"
       r="21.137403" /><circle
       style="opacity:1;fill:#a77fde;fill-opacity:1;stroke:none;stroke-width:0.191722;paint-order:stroke markers fill"
       id="circle8"
       cx="-1.2383505"
       cy="33.866665"
       r="15.31657" /><path
       id="path1"
       style="opacity:1;fill:#f9f9f9;fill-opacity:1;stroke:none;stroke-width:0.291166;stroke-linecap:round;stroke-linejoin:round;stroke-dasharray:none;stroke-opacity:1"
       inkscape:label="caminho"
       inkscape:transform-center-x="-0.012109823"
       inkscape:transform-center-y="-1.6702685"
       d="m 13.773714,29.419105 c -4.4938356,6.199046 -1.700562,7.63635 -0.424339,7.733387 -0.610991,0 -1.015865,0.04447 -1.511219,0.146567 0.185138,0.524186 1.096949,1.496407 1.871558,1.496407 -0.277217,0 -0.694372,0.53665 -0.694372,0.892559 0.638879,0 1.564447,-0.123071 2.202054,0.514535 0.287241,0.287242 0.469964,0.590581 1.027964,0.590914 h 8.47e-4 c 0.557999,-3.32e-4 0.740723,-0.303672 1.027965,-0.590914 0.637607,-0.637606 1.563175,-0.514535 2.202053,-0.514535 0,-0.355909 -0.417155,-0.892559 -0.694373,-0.892559 0.774611,0 1.686421,-0.972221 1.871559,-1.496407 -0.495354,-0.1021 -0.900228,-0.146567 -1.511218,-0.146567 1.276222,-0.09704 4.069495,-1.534341 -0.42434,-7.733387 -0.625593,2.334744 -0.585618,4.351344 -0.550678,5.256987 -0.04258,-0.608961 -0.752736,-1.790507 -1.733392,-2.254116 0.577002,0.961077 0.665081,2.055181 0.665081,2.627832 0,-0.421176 -0.234488,-0.879961 -0.853541,-0.879961 l -1.1e-4,0.847905 c -0.125844,-0.380133 -0.678307,-0.358157 -0.852548,0.03205 0,-0.572649 0.08808,-1.666754 0.665082,-2.62783 -0.980655,0.463608 -1.690816,1.645154 -1.73339,2.254115 0.03494,-0.905644 0.07491,-2.922242 -0.550681,-5.256987 z m -0.310047,7.739686 c 0.899907,0.06421 1.531357,0.855942 2.5572,0.807228 -0.313602,0.108927 -0.460867,0.109208 -0.680557,0.109208 0.150589,0.144133 0.219869,0.385581 0.197303,0.714601 0.189088,-0.08306 0.501832,-0.125929 0.708189,-0.125929 0.206357,0 0.519101,0.04287 0.70819,0.125929 -0.02257,-0.32902 0.04671,-0.570468 0.197302,-0.714601 -0.21969,0 -0.366954,-2.77e-4 -0.680556,-0.109208 1.025843,0.04871 1.657293,-0.743014 2.557199,-0.807228 -0.555923,0.06039 -0.993822,0.544642 -1.419363,0.76412 0.184072,0.0047 0.40353,0.0592 0.658229,0.171328 -0.157385,0.05117 -0.27722,0.04499 -0.27722,0.04499 0,0 -0.395752,0.505881 -0.896429,0.438819 0,0 0.0021,0.171107 -0.139162,0.211783 0.262901,-0.05941 0.501531,0.05682 0.272797,0.485907 0.03226,-0.255772 -0.04591,-0.434968 -0.272797,-0.485907 -0.373492,0.107586 -0.560976,0.268882 -0.70819,0.601303 -0.147214,-0.332421 -0.334698,-0.493717 -0.708189,-0.601303 -0.226896,0.05094 -0.305061,0.230135 -0.272798,0.485907 -0.228733,-0.429083 0.0099,-0.545321 0.272798,-0.485907 -0.141208,-0.04067 -0.139162,-0.211783 -0.139162,-0.211783 -0.500678,0.06706 -0.896429,-0.438819 -0.896429,-0.438819 0,0 -0.119836,0.0062 -0.27722,-0.04499 0.254698,-0.112136 0.474156,-0.16665 0.658228,-0.171328 -0.42554,-0.219478 -0.86344,-0.703725 -1.419363,-0.76412 z m 2.095057,1.837403 c 0.119352,0.0026 0.226947,0.134927 0.208357,0.392617 -0.06875,-0.217281 -0.226414,-0.322257 -0.378247,-0.302752 0.05058,-0.06132 0.111602,-0.09108 0.16989,-0.08986 z m 1.374156,0 c 0.05829,-0.0012 0.119313,0.02855 0.169891,0.08986 -0.151833,-0.01951 -0.309498,0.08547 -0.378248,0.302752 -0.01859,-0.25769 0.089,-0.3901 0.208357,-0.392617 z m -2.192659,0.02708 c 0.09311,0.148262 0.440605,0.461621 0.552338,0.512654 0.0085,0.215055 0.114421,0.467232 0.175417,0.496518 0.08555,0.04107 0.281751,-0.119486 0.281751,-0.119486 0.108543,0.03531 0.353029,0.08067 0.496075,0.08067 0.143047,0 0.387532,-0.04536 0.496076,-0.08067 0,0 0.196199,0.160564 0.28175,0.119486 0.06099,-0.02929 0.166875,-0.281463 0.175417,-0.496518 0.111734,-0.05104 0.459233,-0.364392 0.552338,-0.512654 -0.131294,0.349492 -0.504808,0.716479 -0.504808,0.716479 -0.01213,0.150064 -0.09737,0.410994 -0.207692,0.446557 -0.07113,0.02293 -0.227673,-0.102721 -0.290263,-0.148226 -0.121139,0.05434 -0.35662,0.08953 -0.502818,0.08953 -0.146198,0 -0.381678,-0.03519 -0.502818,-0.08953 -0.06259,0.04551 -0.219139,0.171153 -0.290263,0.148226 -0.11032,-0.03556 -0.195565,-0.296493 -0.207692,-0.446557 0,0 -0.373514,-0.366987 -0.504808,-0.716479 z"
       sodipodi:nodetypes="cccccsssscccccccccccccccccccccccccccccccccccccccccccccccccscccscccsczcscc" /><text
       xml:space="preserve"
       style="font-size:3.52777px;line-height:1;font-family:Unbounded;-inkscape-font-specification:Unbounded;letter-spacing:0px;opacity:1;fill:#905ed6;fill-opacity:1;stroke:none;stroke-width:0.264583;paint-order:stroke markers fill"
       x="22.918362"
       y="36.856468"
       id="text8"><tspan
         sodipodi:role="line"
         id="tspan8"
         style="font-style:normal;font-variant:normal;font-weight:bold;font-stretch:normal;font-family:Unbounded;-inkscape-font-specification:'Unbounded Bold';fill:#f8f6fd;fill-opacity:1;stroke-width:0.264583"
         x="22.918362"
         y="36.856468">COMMISSIONS</tspan></text></g></svg>
