<?xml version="1.0" encoding="UTF-8" standalone="no"?>
<!-- Created with Inkscape (http://www.inkscape.org/) -->

<svg
   width="255.99998"
   height="255.99998"
   viewBox="0 0 67.733328 67.733329"
   version="1.1"
   id="svg5"
   xml:space="preserve"
   inkscape:export-filename="..\..\SamMahonriWebsite\sam\static\circle.svg"
   inkscape:export-xdpi="192"
   inkscape:export-ydpi="192"
   inkscape:version="1.3.2 (091e20e, 2023-11-25, custom)"
   sodipodi:docname="circle.svg"
   xmlns:inkscape="http://www.inkscape.org/namespaces/inkscape"
   xmlns:sodipodi="http://sodipodi.sourceforge.net/DTD/sodipodi-0.dtd"
   xmlns:xlink="http://www.w3.org/1999/xlink"
   xmlns="http://www.w3.org/2000/svg"
   xmlns:svg="http://www.w3.org/2000/svg"><sodipodi:namedview
     id="namedview7"
     pagecolor="#ffffff"
     bordercolor="#000000"
     borderopacity="0.25"
     inkscape:showpageshadow="2"
     inkscape:pageopacity="0.0"
     inkscape:pagecheckerboard="0"
     inkscape:deskcolor="#d1d1d1"
     inkscape:document-units="px"
     showgrid="false"
     inkscape:zoom="2"
     inkscape:cx="129.5"
     inkscape:cy="130.75"
     inkscape:window-width="1920"
     inkscape:window-height="1009"
     inkscape:window-x="1912"
     inkscape:window-y="-8"
     inkscape:window-maximized="1"
     inkscape:current-layer="layer1" /><defs
     id="defs2"><linearGradient
       id="linearGradient2"
       inkscape:collect="always"><stop
         style="stop-color:#8d5fd3;stop-opacity:1"
         offset="0"
         id="stop2" /><stop
         style="stop-color:#ff2a7f;stop-opacity:1"
         offset="1"
         id="stop3" /></linearGradient><linearGradient
       inkscape:collect="always"
       xlink:href="#linearGradient2"
       id="linearGradient3"
       x1="6.4614718"
       y1="33.966715"
       x2="61.288478"
       y2="33.966715"
       gradientUnits="userSpaceOnUse" /></defs><g
     inkscape:label="Camada 1"
     inkscape:groupmode="layer"
     id="layer1"
     style="display:inline"><path
       id="path19"
       style="opacity:0.465565;fill:url(#linearGradient3);stroke-linecap:round;stroke-linejoin:round"
       d="m 20.240234,1.8652344 c -0.08759,-0.01588 -0.176414,0.019639 -0.228515,0.091797 C 7.5646613,19.127193 5.1649529,29.744358 6.8320312,36.197266 c 0.8335781,3.226604 2.6922184,5.392387 4.7851568,6.77539 1.421049,0.939024 2.899799,1.442839 4.28125,1.740235 -2.501079,0.07926 -4.282014,0.292731 -6.4531255,0.740234 -0.1357673,0.02831 -0.2183203,0.174007 -0.171875,0.304687 0.5366521,1.519443 2.0689055,3.594001 4.0175785,5.322266 1.718524,1.524149 3.757693,2.680978 5.748046,2.947266 -0.654982,0.271519 -1.309012,0.794217 -1.873046,1.519531 -0.791071,1.017265 -1.394532,2.27379 -1.394532,3.347656 -4.91e-4,0.127472 0.104961,0.232911 0.232422,0.232422 1.790612,0 3.901595,-0.269674 6,0.02734 2.098705,0.297056 4.176547,1.143011 5.958985,3.396484 0.689331,0.871499 1.361345,1.748591 2.269531,2.414063 0.908467,0.665677 2.054949,1.107422 3.642578,1.107422 1.587626,0 2.73411,-0.441745 3.642578,-1.107422 0.908187,-0.665472 1.5802,-1.542564 2.269531,-2.414063 1.782414,-2.253446 3.862224,-3.099427 5.960938,-3.396484 2.098415,-0.297016 4.207435,-0.02734 5.998047,-0.02734 0.12747,4.89e-4 0.232913,-0.104959 0.232422,-0.232422 0,-1.073868 -0.603325,-2.330386 -1.394532,-3.347656 -0.563954,-0.725089 -1.216578,-1.247889 -1.871093,-1.519531 1.990104,-0.266351 4.027652,-1.42319 5.746093,-2.947266 1.948672,-1.728265 3.480927,-3.802823 4.017578,-5.322266 0.04645,-0.130679 -0.03611,-0.27638 -0.171874,-0.304687 -2.171109,-0.447503 -3.952098,-0.660971 -6.453126,-0.740234 1.381457,-0.297396 2.860232,-0.80121 4.28125,-1.740235 2.092889,-1.383003 3.951644,-3.548782 4.785157,-6.77539 C 62.584918,29.74436 60.185339,19.127192 47.738281,1.9570312 47.627779,1.8058499 47.377812,1.8507019 47.328125,2.03125 c -6e-6,6.5e-4 -6e-6,0.0013 0,0.00195 -3.171946,11.837858 -3.223834,21.875332 -3.064453,27.37305 -0.421101,-1.489655 -1.193323,-3.184399 -2.417969,-4.90625 -1.707648,-2.400951 -4.066755,-4.700413 -6.828125,-6.005859 -0.09788,-0.04602 -0.209559,-0.01365 -0.271484,0.05469 -0.06193,0.06833 -0.08275,0.180541 -0.02734,0.273438 2.579579,4.296637 3.234109,8.781767 3.427734,12.085937 -0.820601,-1.443749 -2.344314,-2.5625 -4.271484,-2.5625 -0.12747,-4.89e-4 -0.232915,0.104958 -0.232422,0.232422 v 3.615234 c -0.489065,-0.64656 -1.232571,-0.904247 -2.03125,-0.875 -0.815456,0.02986 -1.606943,0.347992 -2.175781,1.046875 0.05996,-3.252184 0.628521,-8.597469 3.597656,-13.542968 0.0554,-0.0929 0.03458,-0.205105 -0.02734,-0.273438 -0.06193,-0.06833 -0.173599,-0.100705 -0.271484,-0.05469 C 29.97303,19.79958 27.611974,22.09902 25.904305,24.5 c -1.225405,1.722918 -1.99732,3.417931 -2.417969,4.908203 0.159391,-5.497675 0.107541,-15.536954 -3.064453,-27.3749999 -0.0231,-0.085878 -0.09421,-0.1516696 -0.181641,-0.1679687 z"
       sodipodi:nodetypes="scsscccscsccsssssssccscscccssccccscccccccsccccsccss" /></g></svg>
